<svg id="Layer_1" data-name="Layer 1" xmlns="http://www.w3.org/2000/svg" viewBox="0 0 100 99.97"><defs><style>.cls-1{fill:#ff6000;}</style></defs><title>1 service icon</title><path class="cls-1" d="M23.75,41.2l-6.11-6.11a1.64,1.64,0,0,0-1.17-.48H1.65A1.65,1.65,0,0,0,.48,37.42l5.43,5.43L0.48,48.27a1.65,1.65,0,0,0,1.17,2.81H16.48a1.64,1.64,0,0,0,1.17-.48l6.11-6.11H56V41.2H23.75Zm-8,6.59H5.63L9.4,44a1.65,1.65,0,0,0,0-2.33L5.63,37.9H15.8l4.94,4.94Z" transform="translate(0)"/><path class="cls-1" d="M57.15,9.89A32.78,32.78,0,0,0,24.64,37.64l3.26,0.52a29.66,29.66,0,1,1,0,9.37L24.64,48A32.94,32.94,0,1,0,57.15,9.89Z" transform="translate(0)"/><path class="cls-1" d="M57.15,16.48A26.44,26.44,0,0,0,31.32,37.57l3.23,0.66a23.07,23.07,0,1,1,0,9.23l-3.23.66A26.37,26.37,0,1,0,57.15,16.48Z" transform="translate(0)"/><path class="cls-1" d="M57.15,28a14.77,14.77,0,0,0-13.74,9.27l3.06,1.24a11.54,11.54,0,1,1,0,8.65l-3.06,1.24A14.83,14.83,0,1,0,57.15,28Z" transform="translate(0)"/><path class="cls-1" d="M57.15,34.61a8.22,8.22,0,0,0-5.4,2.05l2.17,2.48a4.88,4.88,0,0,1,3.23-1.24,4.94,4.94,0,0,1,0,9.89,4.87,4.87,0,0,1-3.23-1.24L51.75,49A8.23,8.23,0,1,0,57.15,34.61Z" transform="translate(0)"/><path class="cls-1" d="M100,42.85a42.84,42.84,0,0,0-84-12l3.16,0.92a39.55,39.55,0,1,1,0,22.15L16,54.84A42.89,42.89,0,0,0,35.54,79.75l-6,13.09a5,5,0,0,0,3.37,7,5.18,5.18,0,0,0,1.24.15,5,5,0,0,0,4.49-2.79L45.3,84a42.14,42.14,0,0,0,24,0l6.62,13.24A5,5,0,0,0,85,92.83L79,79.68A42.85,42.85,0,0,0,100,42.85ZM35.74,95.7a1.75,1.75,0,0,1-2,.91,1.74,1.74,0,0,1-1.17-2.41l5.86-12.89q1.8,0.88,3.69,1.6ZM82,94.2a1.74,1.74,0,0,1-3.15,1.5L72.42,82.87q1.89-.72,3.68-1.61Z" transform="translate(0)"/><rect class="cls-1" x="62.1" y="88.99" width="3.3" height="3.3"/><rect class="cls-1" x="55.51" y="88.99" width="3.3" height="3.3"/><rect class="cls-1" x="48.91" y="88.99" width="3.3" height="3.3"/></svg>