<svg id="Layer_1" data-name="Layer 1" xmlns="http://www.w3.org/2000/svg" viewBox="0 0 100 100"><defs><style>.cls-1{fill:#ff6000;}</style></defs><title>2 service icon</title><rect class="cls-1" x="48.33" width="3.33" height="10"/><rect class="cls-1" x="79.94" y="12.5" width="11.78" height="3.33" transform="translate(15.12 64.84) rotate(-45)"/><rect class="cls-1" x="12.5" y="8.27" width="3.33" height="11.78" transform="translate(-5.87 14.17) rotate(-45)"/><rect class="cls-1" x="8.27" y="84.16" width="11.78" height="3.33" transform="translate(-56.54 35.15) rotate(-45)"/><path class="cls-1" d="M93.83,45.44A13.32,13.32,0,0,0,79.12,26.92,13.3,13.3,0,0,0,61.23,19.5a13.31,13.31,0,0,0-22.46,0,13.3,13.3,0,0,0-17.89,7.41A13.32,13.32,0,0,0,6.17,45.44,13.32,13.32,0,0,0,13.33,70H38.92a5.74,5.74,0,0,0,1.18,6.67,5.8,5.8,0,0,0,0,8.33,5.8,5.8,0,0,0,3.45,9.94,6.64,6.64,0,0,0,12.9,0A5.8,5.8,0,0,0,59.9,85a5.8,5.8,0,0,0,0-8.33A5.74,5.74,0,0,0,61.08,70h9A16.69,16.69,0,0,0,86.67,85a1.67,1.67,0,0,0,1.67-1.67V69.9A13.32,13.32,0,0,0,93.83,45.44ZM50,96.67A3.32,3.32,0,0,1,47.13,95h5.74A3.32,3.32,0,0,1,50,96.67Zm5.83-5H44.17a2.5,2.5,0,0,1,0-5H55.83A2.5,2.5,0,0,1,55.83,91.67Zm0-8.33H44.17a2.5,2.5,0,0,1,0-5H55.83A2.5,2.5,0,0,1,55.83,83.33Zm0-8.33H44.17a2.5,2.5,0,0,1,0-5H55.83A2.5,2.5,0,1,1,55.83,75ZM43,48.8a1.66,1.66,0,0,0,2.33,0,9.83,9.83,0,0,0,2.9-8.49l0-.32a10.1,10.1,0,0,0-.3-1.3l0-.1a9.93,9.93,0,0,0-.46-1.16l-0.13-.28A10.24,10.24,0,0,0,46.58,36l0,0a6.77,6.77,0,0,1,6.91,0l0,0a9.75,9.75,0,0,0-.67,1.13l-0.13.28a9.93,9.93,0,0,0-.46,1.16l0,0.1a10,10,0,0,0-.3,1.3c0,0.1,0,.21,0,0.32a9.24,9.24,0,0,0-.11,1.36,9.92,9.92,0,0,0,3,7.13,1.66,1.66,0,0,0,2.33,0,9.83,9.83,0,0,0,2.9-8.49l0-.32a10.1,10.1,0,0,0-.3-1.3l0-.1a9.93,9.93,0,0,0-.46-1.16l-0.14-.28A10.24,10.24,0,0,0,58.24,36l0,0a6.79,6.79,0,0,1,8.12.95,6.63,6.63,0,0,1,2,4.75v4.11l-14.26,9.5a1.67,1.67,0,0,0-.74,1.39v10H46.67v-10a1.67,1.67,0,0,0-.74-1.39l-14.26-9.5V41.67A6.67,6.67,0,0,1,38.33,35a6.59,6.59,0,0,1,3.45,1l0,0a9.75,9.75,0,0,0-.67,1.13L41,37.43a9.93,9.93,0,0,0-.46,1.16l0,0.1a10,10,0,0,0-.3,1.3c0,0.1,0,.21,0,0.32A9.43,9.43,0,0,0,40,41.67,9.92,9.92,0,0,0,43,48.8Zm0.33-7.13a6.74,6.74,0,0,1,.12-1.18c0-.09,0-0.17.05-0.26a6.64,6.64,0,0,1,.34-1.09L43.91,39c0.07-.17.17-0.32,0.26-0.48,0.09,0.16.19,0.31,0.26,0.48l0.07,0.14a6.74,6.74,0,0,1,.34,1.09l0.05,0.26a6,6,0,0,1,0,2.36l-0.05.26a6.64,6.64,0,0,1-.34,1.09l-0.07.14c-0.07.17-.17,0.32-0.26,0.48-0.09-.16-0.19-0.31-0.26-0.48l-0.07-.14a6.74,6.74,0,0,1-.34-1.09l-0.05-.26A6.58,6.58,0,0,1,43.33,41.67Zm11.67,0a6.74,6.74,0,0,1,.12-1.18c0-.09,0-0.17,0-0.26a6.64,6.64,0,0,1,.34-1.09L55.57,39c0.07-.17.17-0.32,0.26-0.48,0.09,0.16.19,0.31,0.26,0.48l0.07,0.14a6.74,6.74,0,0,1,.34,1.09l0,0.26a6,6,0,0,1,0,2.36l0,0.26a6.64,6.64,0,0,1-.34,1.09l-0.07.14c-0.07.17-.17,0.32-0.26,0.48-0.09-.16-0.19-0.31-0.26-0.48l-0.07-.14a6.74,6.74,0,0,1-.34-1.09l0-.26A6.58,6.58,0,0,1,55,41.67Zm31.67,25A1.67,1.67,0,0,0,85,68.33V81.56A13.36,13.36,0,0,1,73.33,68.33a1.67,1.67,0,0,0-1.67-1.67h-15V57.56l14.26-9.5a1.67,1.67,0,0,0,.74-1.39v-5a9.92,9.92,0,0,0-3-7.13L67.5,35.72l1.17-1.19a9.95,9.95,0,0,0-12.83-1,9.91,9.91,0,0,0-11.67,0,9.9,9.9,0,0,0-5.83-1.9,10,10,0,0,0-10,10v5a1.67,1.67,0,0,0,.74,1.39l14.26,9.5v9.11h-30A10,10,0,0,1,9.11,47.61a1.67,1.67,0,0,0,.71-2.38A10,10,0,0,1,21.48,30.51a1.67,1.67,0,0,0,2.14-1.19,10,10,0,0,1,14.94-6.17,1.67,1.67,0,0,0,2.38-.71,10,10,0,0,1,18.1,0,1.67,1.67,0,0,0,2.38.71,10,10,0,0,1,14.94,6.16,1.67,1.67,0,0,0,.81,1.07,1.65,1.65,0,0,0,1.33.13A10,10,0,0,1,90.17,45.23a1.67,1.67,0,0,0,.71,2.38A10,10,0,0,1,86.67,66.67Z" transform="translate(0 0)"/><rect class="cls-1" x="30" y="73.33" width="3.33" height="3.33"/><rect class="cls-1" x="23.33" y="73.33" width="3.33" height="3.33"/><rect class="cls-1" x="16.67" y="73.33" width="3.33" height="3.33"/></svg>