<svg id="Layer_1" data-name="Layer 1" xmlns="http://www.w3.org/2000/svg" viewBox="0 0 100 100"><defs><style>.cls-1{fill:#ff6000;}</style></defs><title>3 service icon</title><path class="cls-1" d="M88.85,86.67A10,10,0,1,0,75,72.82a10,10,0,0,0-5-3.9V63.33h3.33V60H70V50h3.33V46.67H51.2c0.1-.09.23-0.14,0.33-0.24l9.59-8.52a1.67,1.67,0,0,0,.07-2.42l-5-5A1.67,1.67,0,0,0,54,30.36L47,36l-7-9.29a8.37,8.37,0,0,0-6.67-3.33H15a8.34,8.34,0,0,0-8.33,8.33v10a8.25,8.25,0,0,0,1.71,5H1.67A1.67,1.67,0,0,0,0,48.33V86.67H3.33V63.33H66.67v5a10,10,0,0,0-8.33,4.48,10,10,0,0,0-16.67,0,10,10,0,0,0-16.67,0A10,10,0,1,0,11.15,86.67,10,10,0,0,0,6.67,95v5H10V95a6.67,6.67,0,1,1,13.33,0v5h3.33V95A6.67,6.67,0,1,1,40,95v5h3.33V95a6.67,6.67,0,0,1,13.33,0v5H60V95a6.67,6.67,0,1,1,13.33,0v5h3.33V95A6.67,6.67,0,1,1,90,95v5h3.33V95A10,10,0,0,0,88.85,86.67Zm-61.79-60L25,30.09l-2.06-3.43h4.11ZM10,31.67a5,5,0,0,1,5-5h4.06l4.51,7.52a1.67,1.67,0,0,0,2.86,0l4.51-7.52h2.39a5,5,0,0,1,4,2l8,10.67a1.66,1.66,0,0,0,2.37.3l7.17-5.73,2.7,2.7-8.26,7.35A5,5,0,0,1,42,43.2l-5.65-7.54a1.67,1.67,0,0,0-3,1v10H26.67v-5A1.67,1.67,0,0,0,25,40H16.67V33.33H13.33v8.33A1.67,1.67,0,0,0,15,43.33h8.33v3.33H15a5,5,0,0,1-5-5v-10Zm30.77,15h-4.1v-5l2.65,3.54A8.15,8.15,0,0,0,40.77,46.67ZM3.33,60V50H66.67V60H3.33ZM16.67,85a6.67,6.67,0,1,1,6.67-6.67A6.67,6.67,0,0,1,16.67,85ZM25,89.48a10.07,10.07,0,0,0-2.82-2.82A10.07,10.07,0,0,0,25,83.85a10.07,10.07,0,0,0,2.82,2.82A10.07,10.07,0,0,0,25,89.48ZM33.33,85A6.67,6.67,0,1,1,40,78.33,6.67,6.67,0,0,1,33.33,85Zm8.33,4.48a10.07,10.07,0,0,0-2.82-2.82,10.07,10.07,0,0,0,2.82-2.82,10.07,10.07,0,0,0,2.82,2.82A10.07,10.07,0,0,0,41.67,89.48ZM50,85a6.67,6.67,0,1,1,6.67-6.67A6.67,6.67,0,0,1,50,85Zm8.33,4.48a10.07,10.07,0,0,0-2.82-2.82,10.07,10.07,0,0,0,2.82-2.82,10.07,10.07,0,0,0,2.82,2.82A10.07,10.07,0,0,0,58.33,89.48ZM66.67,85a6.67,6.67,0,1,1,6.67-6.67A6.67,6.67,0,0,1,66.67,85ZM75,89.48a10.07,10.07,0,0,0-2.82-2.82A10.07,10.07,0,0,0,75,83.85a10.07,10.07,0,0,0,2.82,2.82A10.07,10.07,0,0,0,75,89.48ZM83.33,85A6.67,6.67,0,1,1,90,78.33,6.67,6.67,0,0,1,83.33,85Z"/><rect class="cls-1" x="60" y="53.33" width="3.33" height="3.33"/><rect class="cls-1" x="53.33" y="53.33" width="3.33" height="3.33"/><rect class="cls-1" x="46.67" y="53.33" width="3.33" height="3.33"/><path class="cls-1" d="M25,0A10,10,0,1,0,35,10,10,10,0,0,0,25,0Zm0,16.67A6.67,6.67,0,1,1,31.67,10,6.67,6.67,0,0,1,25,16.67Z"/><path class="cls-1" d="M95,11.67a5,5,0,0,0-2.83.89L81.61,7.27a5.16,5.16,0,0,0,.06-0.6A5,5,0,1,0,73,10l-5.59,8.39a5,5,0,0,0-.73-0.07,5,5,0,0,0-4.54,2.92l-8.84-2.52c0-.14,0-0.26,0-0.4a5,5,0,1,0-1.41,3.47l9.95,2.84A5,5,0,1,0,70.35,20l5.59-8.39a4.7,4.7,0,0,0,4.19-1.33l10.08,5A4.93,4.93,0,0,0,90,16.67,5,5,0,1,0,95,11.67ZM48.33,20A1.67,1.67,0,1,1,50,18.33,1.67,1.67,0,0,1,48.33,20Zm18.33,5a1.67,1.67,0,1,1,1.67-1.67A1.67,1.67,0,0,1,66.67,25Zm10-16.67a1.67,1.67,0,1,1,1.67-1.67A1.67,1.67,0,0,1,76.67,8.33ZM95,18.33a1.67,1.67,0,1,1,1.67-1.67A1.67,1.67,0,0,1,95,18.33Z"/><rect class="cls-1" x="93.33" y="26.67" width="3.33" height="3.33"/><rect class="cls-1" x="86.67" y="26.67" width="3.33" height="3.33"/><rect class="cls-1" x="80" y="26.67" width="3.33" height="3.33"/></svg>