<svg id="Layer_1" data-name="Layer 1" xmlns="http://www.w3.org/2000/svg" viewBox="0 0 107.14 100"><defs><style>.cls-1{fill:#ff6000;}</style></defs><title>4 service icon</title><path class="cls-1" d="M78.57,53.57a7.14,7.14,0,0,0-14.29,0v3.57A7.13,7.13,0,0,0,75.52,63a5.35,5.35,0,0,0,10.19-2.27V53.57a14.29,14.29,0,0,0-28.57,0v5.36A14.3,14.3,0,0,0,71.43,73.21h8.93a5.36,5.36,0,0,0,5.36-5.36H82.14a1.79,1.79,0,0,1-1.79,1.79H71.43A10.73,10.73,0,0,1,60.71,58.93V53.57a10.71,10.71,0,0,1,21.43,0v7.14a1.79,1.79,0,0,1-3.57,0V53.57ZM75,57.14a3.57,3.57,0,1,1-7.14,0V53.57a3.57,3.57,0,0,1,7.14,0v3.57Z" transform="translate(0 0)"/><path class="cls-1" d="M55,95.6c-1.12.22-2.26,0.4-3.39,0.53l0.41,3.55c1.22-.14,2.46-0.33,3.67-0.57Z" transform="translate(0 0)"/><path class="cls-1" d="M48.21,96.39c-1.14,0-2.3,0-3.43,0L44.65,100c0.59,0,1.18,0,1.78,0s1.29,0,1.93,0Z" transform="translate(0 0)"/><path class="cls-1" d="M31.35,93.81l-1.21,3.36c1.16,0.42,2.35.79,3.53,1.12l0.94-3.44C33.53,94.55,32.43,94.2,31.35,93.81Z" transform="translate(0 0)"/><path class="cls-1" d="M38,95.63l-0.68,3.51c1.21,0.23,2.44.42,3.66,0.56l0.4-3.55C40.23,96,39.08,95.84,38,95.63Z" transform="translate(0 0)"/><path class="cls-1" d="M25.1,91l-1.71,3.13c1.09,0.59,2.2,1.15,3.32,1.65l1.46-3.26C27.14,92.07,26.11,91.56,25.1,91Z" transform="translate(0 0)"/><path class="cls-1" d="M14.23,82.69l-2.58,2.48c0.86,0.89,1.76,1.76,2.67,2.57l2.38-2.66C15.86,84.32,15,83.52,14.23,82.69Z" transform="translate(0 0)"/><path class="cls-1" d="M19.35,87.27L17.18,90.1c1,0.74,2,1.47,3,2.14l1.95-3C21.19,88.62,20.25,88,19.35,87.27Z" transform="translate(0 0)"/><path class="cls-1" d="M61.65,93.76c-1.07.39-2.17,0.74-3.27,1l1,3.44c1.19-.33,2.38-0.71,3.53-1.13Z" transform="translate(0 0)"/><path class="cls-1" d="M73.63,87.17c-0.89.69-1.83,1.36-2.79,2l2,3c1-.68,2.05-1.4,3-2.15Z" transform="translate(0 0)"/><path class="cls-1" d="M78.63,82.69c-0.76.79-1.55,1.56-2.36,2.28l2.39,2.65c0.87-.78,1.73-1.61,2.54-2.46Z" transform="translate(0 0)"/><path class="cls-1" d="M67.89,90.93c-1,.55-2,1.07-3.07,1.54l1.48,3.25c1.13-.51,2.24-1.07,3.31-1.66Z" transform="translate(0 0)"/><path class="cls-1" d="M40.81,0.32c-1.22.14-2.46,0.33-3.67,0.57L37.82,4.4c1.12-.22,2.26-0.4,3.39-0.53Z" transform="translate(0 0)"/><path class="cls-1" d="M44.5,0L44.64,3.6c1.14,0,2.3,0,3.43,0L48.21,0C47,0,45.74,0,44.5,0Z" transform="translate(0 0)"/><path class="cls-1" d="M33.53,1.75c-1.19.33-2.38,0.71-3.53,1.13l1.22,3.36c1.07-.39,2.17-0.74,3.27-1Z" transform="translate(0 0)"/><path class="cls-1" d="M26.56,4.28c-1.13.51-2.24,1.07-3.31,1.66L25,9.07C26,8.52,27,8,28,7.53Z" transform="translate(0 0)"/><path class="cls-1" d="M59.18,1.71L58.23,5.15c1.1,0.3,2.2.65,3.27,1l1.21-3.36C61.55,2.41,60.36,2,59.18,1.71Z" transform="translate(0 0)"/><path class="cls-1" d="M51.9,0.31L51.5,3.86c1.13,0.13,2.28.3,3.39,0.52l0.67-3.51C54.36,0.63,53.13.45,51.9,0.31Z" transform="translate(0 0)"/><path class="cls-1" d="M20.06,7.85C19,8.53,18,9.25,17,10l2.18,2.83c0.89-.69,1.83-1.36,2.79-2Z" transform="translate(0 0)"/><path class="cls-1" d="M72.65,7.76l-1.95,3c1,0.62,1.9,1.29,2.8,2L75.68,9.9C74.71,9.15,73.69,8.43,72.65,7.76Z" transform="translate(0 0)"/><path class="cls-1" d="M78.54,12.26l-2.38,2.66c0.84,0.75,1.67,1.55,2.47,2.38l2.58-2.48C80.34,13.94,79.45,13.07,78.54,12.26Z" transform="translate(0 0)"/><path class="cls-1" d="M14.2,12.37c-0.87.78-1.73,1.61-2.54,2.46l2.57,2.48c0.76-.79,1.55-1.55,2.36-2.28Z" transform="translate(0 0)"/><path class="cls-1" d="M66.15,4.21L64.68,7.47c1,0.46,2.07,1,3.08,1.53l1.71-3.13C68.38,5.27,67.26,4.71,66.15,4.21Z" transform="translate(0 0)"/><path class="cls-1" d="M107.14,23.21V19.64H1.79A1.79,1.79,0,0,0,0,21.43v50a8.94,8.94,0,0,0,8.93,8.93h75a8.94,8.94,0,0,0,8.93-8.93V37.5h3.57V33.93H92.86V30.36h8.93V26.79H92.86V23.21h14.29Zm-23.38,0L46.43,42.63,9.09,23.21H83.77Zm5.52,48.21a5.36,5.36,0,0,1-5.36,5.36h-75a5.36,5.36,0,0,1-5.36-5.36V24.37l42,21.86a1.78,1.78,0,0,0,1.65,0l42-21.86V71.43Z" transform="translate(0 0)"/><rect class="cls-1" x="7.14" y="69.64" width="3.57" height="3.57"/><rect class="cls-1" x="14.29" y="69.64" width="3.57" height="3.57"/><rect class="cls-1" x="21.43" y="69.64" width="3.57" height="3.57"/></svg>