<svg id="Layer_1" data-name="Layer 1" xmlns="http://www.w3.org/2000/svg" viewBox="0 0 100 100"><defs><style>.cls-1{fill:#ff6000;}</style></defs><title>5 service icon</title><path class="cls-1" d="M98.44,87.5H95.31V39.06a7.82,7.82,0,0,0-7.81-7.81H54.69v-8.1a4.69,4.69,0,0,0,2.71-2.5l16.23,4.06a4.68,4.68,0,0,0,9.18-1.27V4.69a4.68,4.68,0,0,0-9.18-1.27L57.4,7.48a4.68,4.68,0,0,0-4.28-2.79H46.88A4.68,4.68,0,0,0,42.6,7.48L26.37,3.42a4.68,4.68,0,0,0-9.18,1.27V23.44a4.68,4.68,0,0,0,9.18,1.27L42.6,20.65a4.69,4.69,0,0,0,2.71,2.5v8.1H12.5a7.82,7.82,0,0,0-7.81,7.81V87.5H1.56A1.56,1.56,0,0,0,0,89.06,11,11,0,0,0,10.94,100H89.06A11,11,0,0,0,100,89.06,1.56,1.56,0,0,0,98.44,87.5ZM76.56,4.69a1.56,1.56,0,0,1,3.13,0V23.44a1.56,1.56,0,0,1-3.12,0V4.69ZM57.81,10.6L73.44,6.69V21.44L57.81,17.53V10.6ZM23.44,23.44a1.56,1.56,0,0,1-3.12,0V4.69a1.56,1.56,0,0,1,3.13,0V23.44Zm18.75-5.91L26.56,21.44V6.69L42.19,10.6v6.93Zm3.13-8.15a1.57,1.57,0,0,1,1.56-1.56h6.25a1.57,1.57,0,0,1,1.56,1.56v9.38a1.57,1.57,0,0,1-1.56,1.56H46.88a1.57,1.57,0,0,1-1.56-1.56V9.38Zm6.25,14.06v7.81H48.44V23.44h3.13ZM20.31,34.38h9.38v13.1l-4-2a1.55,1.55,0,0,0-.7-0.17,1.56,1.56,0,0,0-.7.16l-4,2V34.38Zm-2.38,17a1.57,1.57,0,0,0,1.52.07L25,48.62l5.55,2.78a1.55,1.55,0,0,0,.7.17A1.56,1.56,0,0,0,32.81,50V40.63H85.94V81.25H14.06V40.63h3.13V50A1.57,1.57,0,0,0,17.93,51.33ZM7.81,39.06a4.69,4.69,0,0,1,4.69-4.69h4.69V37.5H12.5a1.56,1.56,0,0,0-1.56,1.56V82.81a1.56,1.56,0,0,0,1.56,1.56h75a1.56,1.56,0,0,0,1.56-1.56V39.06A1.56,1.56,0,0,0,87.5,37.5H32.81V34.38H87.5a4.69,4.69,0,0,1,4.69,4.69V87.5H7.81V39.06ZM89.06,96.88H10.94a7.82,7.82,0,0,1-7.65-6.25H96.72A7.82,7.82,0,0,1,89.06,96.88Z"/><path class="cls-1" d="M56.95,59.54l-9.37-4.69a1.56,1.56,0,0,0-2.26,1.4v9.38a1.56,1.56,0,0,0,1.56,1.56,1.55,1.55,0,0,0,.7-0.17l9.37-4.69A1.56,1.56,0,0,0,56.95,59.54ZM48.44,63.1V58.78l4.32,2.16Z"/><path class="cls-1" d="M50,46.88A14.06,14.06,0,1,0,64.06,60.94,14.08,14.08,0,0,0,50,46.88Zm0,25A10.94,10.94,0,1,1,60.94,60.94,10.95,10.95,0,0,1,50,71.88Z"/><path class="cls-1" d="M89.36,8.27l-2.39,2a4.69,4.69,0,0,1-.58,6.6l2,2.39A7.82,7.82,0,0,0,89.36,8.27Z"/><path class="cls-1" d="M94.15,4.25l-2.39,2a11,11,0,0,1-1.34,15.41l2,2.39A14.08,14.08,0,0,0,94.15,4.25Z"/><path class="cls-1" d="M15.17,11.24l-2-2.39a7.82,7.82,0,0,0-1,11l2.39-2A4.69,4.69,0,0,1,15.17,11.24Z"/><path class="cls-1" d="M11.15,6.45l-2-2.39A14.08,14.08,0,0,0,7.41,23.87l2.39-2A11,11,0,0,1,11.15,6.45Z"/></svg>