<svg id="Layer_1" data-name="Layer 1" xmlns="http://www.w3.org/2000/svg" viewBox="0 0 100 100"><defs><style>.cls-1{fill:#ff6000;}</style></defs><title>6 service icon</title><g id="learning-listening-understand-mind-mental"><path class="cls-1" d="M79.68,64.22l3.13-31.41A32.75,32.75,0,0,0,25.64,10.94H18.75v3.13h4.39A32.88,32.88,0,0,0,17.19,33l3.13,31.25a1.55,1.55,0,0,0,.3.78L39.37,90a1.56,1.56,0,0,0,1.25.63H59.37A1.56,1.56,0,0,0,60.62,90L79.37,65A1.54,1.54,0,0,0,79.68,64.22ZM58.59,87.5H41.41l-18-24L20.31,32.81A29.54,29.54,0,0,1,27,14.06H46.23l-2,2,2.21,2.21L51.1,13.6a1.56,1.56,0,0,0,0-2.21L46.42,6.71,44.21,8.92l2,2H30A29.64,29.64,0,0,1,79.7,32.66L76.61,63.47Z" transform="translate(0 0)"/><path class="cls-1" d="M62.5,18.75c-6.7,0-13.42,8-13.7,8.38-1.67,2-6.94,7.25-11.3,7.25-4.75,0-7.81-2.45-7.81-6.25s3.07-6.25,7.81-6.25c2.94,0,6.16,2.31,8.34,4.25l2.07-2.34c-2.59-2.3-6.5-5-10.42-5-6.44,0-10.94,3.85-10.94,9.38s4.5,9.38,10.94,9.38c6.7,0,13.42-8,13.7-8.38,1.67-2,6.94-7.25,11.3-7.25,4.75,0,7.81,2.45,7.81,6.25s-3.07,6.25-7.81,6.25c-2.93,0-6.15-2.31-8.34-4.25l-2.07,2.34c2.59,2.3,6.5,5,10.41,5,6.44,0,10.94-3.85,10.94-9.37S68.94,18.75,62.5,18.75Z" transform="translate(0 0)"/><path class="cls-1" d="M1,97a1.57,1.57,0,0,0-1,1.45V100H3.13V99.5L33.39,87.39l-1.16-2.9Z" transform="translate(0 0)"/><path class="cls-1" d="M99,97L67.77,84.49l-1.16,2.9L96.88,99.5V100H100V98.44A1.57,1.57,0,0,0,99,97Z" transform="translate(0 0)"/><path class="cls-1" d="M48.9,36.4l-4.69,4.69,2.21,2.21,2-2V53.13h3.13V41.27l2,2,2.21-2.21L51.1,36.4A1.56,1.56,0,0,0,48.9,36.4Z" transform="translate(0 0)"/><path class="cls-1" d="M11.4,25.46l2.21,2.21L18.29,23a1.56,1.56,0,0,0,0-2.21L13.6,16.08,11.4,18.29l2,2H6.25v3.13h7.17Z" transform="translate(0 0)"/><path class="cls-1" d="M5.15,47.33l2.21,2.21L12,44.85a1.56,1.56,0,0,0,0-2.21L7.35,38,5.15,40.17l2,2H0v3.13H7.17Z" transform="translate(0 0)"/><path class="cls-1" d="M81.71,12l2.21-2.21-2-2h5.6V4.69H81.9l2-2L81.71,0.46,77,5.15a1.56,1.56,0,0,0,0,2.21Z" transform="translate(0 0)"/><path class="cls-1" d="M93.29,55.79l-2.21-2.21L86.4,58.27a1.56,1.56,0,0,0,0,2.21l4.69,4.69L93.29,63l-2-2H100V57.81H91.27Z" transform="translate(0 0)"/><path class="cls-1" d="M83.27,32.35L88,37l2.21-2.21-2-2h8.73V29.69H88.15l2-2L88,25.46l-4.69,4.69A1.56,1.56,0,0,0,83.27,32.35Z" transform="translate(0 0)"/><rect class="cls-1" y="20.31" width="3.13" height="3.13"/><rect class="cls-1" x="12.5" y="10.94" width="3.13" height="3.13"/><rect class="cls-1" x="6.25" y="10.94" width="3.13" height="3.13"/><rect class="cls-1" x="90.63" y="4.69" width="3.13" height="3.13"/><rect class="cls-1" x="96.88" y="4.69" width="3.13" height="3.13"/><rect class="cls-1" y="10.94" width="3.13" height="3.13"/><rect class="cls-1" x="7.81" y="1.56" width="12.5" height="3.12"/><rect class="cls-1" x="23.44" y="1.56" width="3.13" height="3.12"/><rect class="cls-1" x="6.25" y="28.12" width="3.13" height="3.13"/><rect class="cls-1" y="28.12" width="3.13" height="3.13"/><rect class="cls-1" x="48.44" y="56.25" width="3.12" height="3.13"/><rect class="cls-1" x="48.44" y="62.5" width="3.12" height="3.13"/><rect class="cls-1" x="48.44" y="68.75" width="3.12" height="3.13"/><path class="cls-1" d="M61.4,41.08l-4.69,4.69L58.92,48l2-2V57.81h3.13V46l2,2,2.21-2.21L63.6,41.08A1.56,1.56,0,0,0,61.4,41.08Z" transform="translate(0 0)"/><rect class="cls-1" x="60.94" y="60.94" width="3.13" height="3.13"/><rect class="cls-1" x="60.94" y="67.19" width="3.13" height="3.13"/><path class="cls-1" d="M36.4,41.08l-4.69,4.69L33.92,48l2-2V57.81h3.13V46l2,2,2.21-2.21L38.6,41.08A1.56,1.56,0,0,0,36.4,41.08Z" transform="translate(0 0)"/><rect class="cls-1" x="35.94" y="60.94" width="3.13" height="3.13"/><rect class="cls-1" x="35.94" y="67.19" width="3.13" height="3.13"/></g></svg>